<svg width="155" height="32" viewBox="0 0 155 32" fill="none" xmlns="http://www.w3.org/2000/svg">
<path d="M0 0.269662V31.7303H2.06344V17.6629H5.33804C8.92663 17.6629 11.2144 18.8315 11.2144 23.0112V27.9551C11.2144 29.6629 11.2428 31.7303 11.2428 31.7303H13.2778C13.2778 31.7303 13.2778 29.2584 13.2778 27.9551V23.0562C13.2778 19.6404 11.9769 17.3483 8.7472 16.6292C11.8424 15.9101 13.2778 13.7978 13.2778 10.1124V7.37079C13.2778 2.92135 11.3489 0.269662 6.54919 0.269662H0ZM2.06344 15.7753V2.1573H6.50433C9.9135 2.1573 11.2144 4.17977 11.2144 7.55056V10.5169C11.2144 14.7416 9.06121 15.7753 5.38289 15.7753H2.06344Z" fill="black"/>
<path d="M17.1688 24.0449C17.1688 28.6292 19.2771 32 24.032 32C28.8766 32 30.9849 28.6292 30.9849 24.0449V7.95506C30.9849 3.37079 28.8766 0 24.032 0C19.2771 0 17.1688 3.37079 17.1688 7.95506V24.0449ZM19.2323 7.82023C19.2323 4.40449 20.578 1.88764 24.032 1.88764C27.5309 1.88764 28.9215 4.40449 28.9215 7.82023V24.1798C28.9215 27.5955 27.5309 30.1124 24.032 30.1124C20.578 30.1124 19.2323 27.5955 19.2323 24.1798V7.82023Z" fill="black"/>
<path d="M46.3199 5.97753L50.5365 31.7303H53.2279L58.252 0.269662H56.4128L51.8822 28.8539L47.4862 0.404495H45.2882L40.7127 28.9438L36.0027 0.269662H33.9841L39.053 31.7303H41.9238L46.3199 5.97753Z" fill="black"/>
<path d="M74.9305 0C70.3102 0.0449432 68.2468 3.10112 68.2468 7.82023C68.2468 16.5843 79.5957 16.7191 79.5957 24.2697C79.5957 27.6404 78.2948 30.0674 74.8408 30.0674C71.3868 30.0674 70.0859 27.6404 70.0859 24.2697V22.5169H68.1122V24.1348C68.1122 28.6742 70.0859 32 74.8857 32C79.6854 32 81.6591 28.6742 81.6591 24.1348C81.6591 15.4607 70.3102 15.3258 70.3102 7.68539C70.3102 4.35955 71.5662 1.88764 74.9754 1.88764C78.3845 1.88764 79.6405 4.40449 79.6405 7.73034V8.53933H81.6143V7.86517C81.6143 3.32584 79.6854 0 74.9305 0Z" fill="black"/>
<path d="M92.475 31.7303V2.1573H98.8448V0.269662H83.997V2.1573H90.4116V31.7303H92.475Z" fill="black"/>
<path d="M103.516 0.269662H101.453V24.0449C101.453 28.5393 103.382 32 108.181 32C112.981 32 114.865 28.5393 114.865 24.0449V0.269662H112.936V24.1348C112.936 27.5056 111.68 30.1124 108.226 30.1124C104.772 30.1124 103.516 27.5056 103.516 24.1348V0.269662Z" fill="black"/>
<path d="M118.408 0.269662V31.7303H125.316C130.161 31.7303 132.269 28.5393 132.269 23.9101V8.08989C132.269 3.46067 130.161 0.269662 125.316 0.269662H118.408ZM120.471 29.8427V2.1573H125.271C128.725 2.1573 130.205 4.53933 130.205 8V24C130.205 27.4607 128.77 29.8427 125.271 29.8427H120.471Z" fill="black"/>
<path d="M135.667 0.269662V31.7303H137.731V0.269662H135.667Z" fill="black"/>
<path d="M141.184 24.0449C141.184 28.6292 143.292 32 148.047 32C152.892 32 155 28.6292 155 24.0449V7.95506C155 3.37079 152.892 0 148.047 0C143.292 0 141.184 3.37079 141.184 7.95506V24.0449ZM143.247 7.82023C143.247 4.40449 144.593 1.88764 148.047 1.88764C151.546 1.88764 152.937 4.40449 152.937 7.82023V24.1798C152.937 27.5955 151.546 30.1124 148.047 30.1124C144.593 30.1124 143.247 27.5955 143.247 24.1798V7.82023Z" fill="black"/>
</svg>
